<?xml version="1.0" encoding="UTF-8" standalone="no"?>
<!-- Created with Inkscape (http://www.inkscape.org/) -->

<svg
   width="210mm"
   height="297mm"
   viewBox="0 0 210 297"
   version="1.1"
   id="svg716"
   inkscape:version="1.1 (c68e22c387, 2021-05-23)"
   sodipodi:docname="dessin.svg"
   xmlns:inkscape="http://www.inkscape.org/namespaces/inkscape"
   xmlns:sodipodi="http://sodipodi.sourceforge.net/DTD/sodipodi-0.dtd"
   xmlns="http://www.w3.org/2000/svg"
   xmlns:svg="http://www.w3.org/2000/svg">
  <sodipodi:namedview
     id="namedview718"
     pagecolor="#ffffff"
     bordercolor="#666666"
     borderopacity="1.0"
     inkscape:pageshadow="2"
     inkscape:pageopacity="0.0"
     inkscape:pagecheckerboard="0"
     inkscape:document-units="mm"
     showgrid="true"
     inkscape:zoom="27.253213"
     inkscape:cx="205.77391"
     inkscape:cy="55.754895"
     inkscape:window-width="2560"
     inkscape:window-height="1377"
     inkscape:window-x="-8"
     inkscape:window-y="1912"
     inkscape:window-maximized="1"
     inkscape:current-layer="layer1">
    <inkscape:grid
       type="xygrid"
       id="grid720" />
  </sodipodi:namedview>
  <defs
     id="defs713" />
  <g
     inkscape:label="Calque 1"
     inkscape:groupmode="layer"
     id="layer1">
    <g
       id="g3394">
      <path
         id="path755"
         style="color:#000000;fill:#000000;stroke-width:3.77953;stroke-linecap:round;stroke-linejoin:round;-inkscape-stroke:none"
         d="M 209.98047 39.498047 A 0.50083744 0.50083744 0 0 0 209.71875 39.582031 L 194.71875 49.583984 A 0.50083744 0.50083744 0 0 0 194.60352 49.699219 A 0.49999937 0.49999937 0 0 0 194.57422 49.744141 A 0.50083744 0.50083744 0 0 0 194.5332 49.826172 A 0.49999937 0.49999937 0 0 0 194.51367 49.904297 A 0.50083744 0.50083744 0 0 0 194.50195 49.96875 A 0.49999937 0.49999937 0 0 0 194.49805 49.998047 L 194.49805 53.998047 A 0.50004934 0.50004934 0 0 0 194.64648 54.353516 L 199.64258 59.349609 A 0.50078736 0.50078736 0 0 0 199.74023 59.425781 A 0.50004934 0.50004934 0 0 0 199.77539 59.445312 A 0.50078736 0.50078736 0 0 0 199.86523 59.480469 A 0.50004934 0.50004934 0 0 0 199.90039 59.488281 A 0.50078736 0.50078736 0 0 0 199.99805 59.498047 A 0.50004934 0.50004934 0 0 0 200.04297 59.496094 A 0.50078736 0.50078736 0 0 0 200.13867 59.478516 A 0.50004934 0.50004934 0 0 0 200.19141 59.458984 A 0.50078736 0.50078736 0 0 0 200.26758 59.419922 A 0.50004934 0.50004934 0 0 0 200.27734 59.416016 L 202.40039 58 L 202.5 58 L 202.5 57.933594 L 215.27734 49.414062 A 0.50004934 0.50004934 0 0 0 215.5 49.001953 L 215.5 45 A 0.49999937 0.49999937 0 0 0 215.35156 44.646484 L 215.33398 44.626953 A 0.49999937 0.49999937 0 0 0 215.32422 44.619141 L 210.35352 39.648438 A 0.50083744 0.50083744 0 0 0 209.98047 39.498047 z M 209.93359 40.644531 L 214.21484 44.925781 L 213.26562 45.556641 L 208.98633 41.277344 L 209.93359 40.644531 z M 208.13477 41.84375 L 212.41602 46.125 L 201.86328 53.15625 L 197.58789 48.878906 L 208.13477 41.84375 z M 214.50391 45.929688 L 214.50391 48.734375 L 213.49805 49.404297 L 213.49805 46.599609 L 214.50391 45.929688 z M 212.50195 47.263672 L 212.50195 49.998047 A 0.50078736 0.50078736 0 0 0 212.50781 50.064453 L 202.5 56.730469 L 202.5 53.998047 L 202.49805 53.998047 A 0.50078736 0.50078736 0 0 0 202.49414 53.9375 L 212.50195 47.263672 z M 196.73633 49.445312 L 201.01367 53.722656 L 200.06445 54.353516 L 199.51758 53.806641 L 195.78906 50.078125 L 196.73633 49.445312 z M 195.50195 51.207031 L 198.80859 54.515625 L 199.49609 55.208984 L 199.49609 57.785156 L 195.50195 53.791016 L 195.50195 51.207031 z M 201.49609 54.601562 L 201.49609 57.398438 L 200.5 58.0625 L 200.5 55.267578 L 201.49609 54.601562 z "
         transform="scale(0.26458333)" />
      <path
         style="fill:#c87137;stroke-width:0.0367507;stroke-linecap:butt;stroke-linejoin:round;stroke-miterlimit:4;stroke-dasharray:none"
         d="m 208.0776,41.794456 c -3.50044,2.33368 -7.00089,4.667359 -10.50134,7.001038 -0.12847,0.195866 0.20997,0.315656 0.29609,0.465288 1.31145,1.308862 2.61712,2.623518 3.93514,3.925752 0.19136,0.06363 0.33802,-0.178673 0.50724,-0.244005 3.37414,-2.243318 6.74416,-4.493019 10.11586,-6.740121 0.12847,-0.195869 -0.20998,-0.315642 -0.29611,-0.465267 -1.31024,-1.310052 -2.62046,-2.620129 -3.93067,-3.930215 -0.0453,-0.02033 -0.0789,-0.04292 -0.12621,-0.01247 z"
         id="path2502"
         transform="scale(0.26458333)" />
      <path
         style="fill:#803300;stroke-width:0.0367507;stroke-linecap:butt;stroke-linejoin:round;stroke-miterlimit:4;stroke-dasharray:none"
         d="m 212.41332,47.243068 c -3.32608,2.200247 -6.63979,4.421612 -9.96055,6.630813 -0.10473,0.221611 -0.0144,0.500361 -0.0445,0.743677 0.0132,0.694031 -0.0288,1.394169 0.0384,2.084688 0.12978,0.16667 0.30937,-0.09637 0.44136,-0.143895 3.22196,-2.136074 6.4364,-4.2834 9.65407,-6.426002 0.10476,-0.221584 0.0147,-0.500315 0.045,-0.743604 -0.0172,-0.690148 0.0379,-1.387261 -0.0362,-2.073509 -0.0182,-0.05701 -0.0803,-0.08909 -0.13752,-0.07217 z"
         id="path2541"
         transform="scale(0.26458333)" />
      <path
         style="fill:#999999;stroke-width:0.0367507;stroke-linecap:butt;stroke-linejoin:round;stroke-miterlimit:4;stroke-dasharray:none"
         d="m 196.67686,49.398634 c -0.31243,0.224878 -0.67506,0.401292 -0.94929,0.665059 0.0941,0.238215 0.36095,0.380009 0.52061,0.581503 1.24898,1.24911 2.49796,2.49822 3.74695,3.74733 0.18009,0.07093 0.32296,-0.156219 0.4819,-0.221492 0.19249,-0.148419 0.43723,-0.245039 0.59266,-0.430452 -0.0941,-0.238214 -0.36095,-0.380009 -0.52061,-0.581502 -1.24899,-1.249111 -2.49797,-2.498221 -3.74695,-3.747331 -0.0449,-0.01958 -0.0783,-0.0433 -0.12527,-0.01311 z"
         id="path2691"
         transform="scale(0.26458333)" />
      <path
         style="fill:#999999;stroke-width:0.0367507;stroke-linecap:butt;stroke-linejoin:round;stroke-miterlimit:4;stroke-dasharray:none"
         d="m 209.88631,40.592333 c -0.31243,0.224878 -0.67506,0.401292 -0.94929,0.665059 0.0941,0.238214 0.36095,0.380009 0.52061,0.581503 1.24898,1.24911 2.49797,2.49822 3.74695,3.74733 0.18009,0.07093 0.32296,-0.156219 0.4819,-0.221492 0.19249,-0.148419 0.43723,-0.24504 0.59266,-0.430452 -0.0941,-0.238214 -0.36095,-0.380009 -0.52061,-0.581503 -1.24898,-1.24911 -2.49797,-2.49822 -3.74695,-3.74733 -0.0449,-0.01958 -0.0783,-0.0433 -0.12527,-0.01311 z"
         id="path3026"
         transform="scale(0.26458333)" />
      <path
         style="fill:#333333;stroke-width:0.0367507;stroke-linecap:butt;stroke-linejoin:round;stroke-miterlimit:4;stroke-dasharray:none"
         d="m 201.40544,54.581366 c -0.32091,0.207942 -0.6561,0.411079 -0.9542,0.645444 -0.0586,0.357895 -0.007,0.747079 -0.0244,1.116605 0.009,0.558352 -0.0193,1.121385 0.0364,1.676838 0.13383,0.168585 0.31448,-0.08962 0.45178,-0.140466 0.21271,-0.17056 0.51177,-0.270365 0.66434,-0.491986 -0.0159,-0.904559 0.0351,-1.813315 -0.0305,-2.715491 -0.0126,-0.06504 -0.0774,-0.111003 -0.1434,-0.09094 z"
         id="path3065"
         transform="scale(0.26458333)" />
      <path
         style="fill:#333333;stroke-width:0.0367507;stroke-linecap:butt;stroke-linejoin:round;stroke-miterlimit:4;stroke-dasharray:none"
         d="m 214.39474,45.921837 c -0.32092,0.207941 -0.65611,0.411078 -0.9542,0.645444 -0.0586,0.357894 -0.007,0.747078 -0.0244,1.116604 0.0117,0.564313 -0.0228,1.135391 0.0297,1.695901 0.15685,0.142062 0.32266,-0.114445 0.47133,-0.165353 0.21006,-0.165319 0.5031,-0.262761 0.65289,-0.47964 -0.0164,-0.906708 0.0341,-1.817642 -0.032,-2.721941 -0.0127,-0.06509 -0.0773,-0.111075 -0.1434,-0.09102 z"
         id="path3141"
         transform="scale(0.26458333)" />
      <path
         style="fill:#4d4d4d;stroke-width:0.0367507;stroke-linecap:butt;stroke-linejoin:round;stroke-miterlimit:4;stroke-dasharray:none"
         d="m 195.46613,51.192001 c -0.0618,0.507992 -0.0108,1.037392 -0.0283,1.553787 0.0189,0.370266 -0.0397,0.755869 0.0281,1.116483 1.30656,1.303834 2.60667,2.614144 3.92005,3.911093 0.20983,0.0936 0.17454,-0.200462 0.17304,-0.323212 -0.003,-0.758283 0.0213,-1.523808 -0.0102,-2.277504 -0.67625,-0.730459 -1.40837,-1.423797 -2.10604,-2.140019 -0.62482,-0.614877 -1.22791,-1.262446 -1.8663,-1.85692 -0.0377,-0.03784 -0.0733,0.0073 -0.11026,0.01629 z"
         id="path3180"
         transform="scale(0.26458333)" />
    </g>
  </g>
</svg>
